<svg xmlns="http://www.w3.org/2000/svg" viewBox="0, 0, 400,279.04761904761904"><path d="M193.571 20.068 C 154.529 25.027,135.372 71.063,159.319 102.381 C 182.324 132.467,229.945 127.692,246.417 93.648 C 264.198 56.895,234.055 14.925,193.571 20.068" fill="#2563EB" /><path d="M84.936 47.824 C 55.379 54.555,45.379 91.476,67.553 112.005 C 91.861 134.510,131.476 115.845,129.870 82.644 C 128.770 59.904,106.765 42.852,84.936 47.824" fill="#2563EB" /><path d="M300.988 47.661 C 268.498 54.035,259.568 96.757,286.839 115.348 C 310.102 131.206,341.541 116.570,344.726 88.399 C 347.483 64.007,324.897 42.970,300.988 47.661" fill="#2563EB" /><path d="M89.338 127.861 L 86.057 131.508 89.326 134.802 L 92.594 138.096 95.821 134.894 C 99.709 131.036,99.708 131.834,95.833 127.669 L 92.619 124.214 89.338 127.861" fill="#DC2626" /><path d="M304.593 127.686 C 300.780 131.864,300.772 131.041,304.655 134.894 L 307.882 138.096 311.173 134.780 L 314.464 131.463 311.672 128.470 C 310.137 126.823,308.628 125.193,308.319 124.848 C 307.867 124.343,307.136 124.899,304.593 127.686" fill="#DC2626" /><path d="M195.598 130.394 C 190.625 135.894,190.606 134.943,195.808 140.440 L 200.055 144.928 204.753 140.247 L 209.452 135.566 204.852 130.640 C 199.388 124.789,200.636 124.822,195.598 130.394" fill="#DC2626" /><path d="M60.511 128.140 C 39.540 139.519,25.103 162.336,24.649 184.819 C 24.250 204.536,59.464 222.855,95.754 221.810 C 104.617 221.554,104.112 221.805,102.944 218.245 C 99.599 208.057,103.626 186.541,112.010 169.801 C 117.316 159.205,122.411 152.244,131.346 143.386 L 137.777 137.009 136.151 135.651 C 132.480 132.588,121.429 125.576,121.429 126.311 C 121.429 126.646,92.869 203.957,92.673 204.153 C 92.573 204.253,92.278 203.734,92.017 203.000 C 91.757 202.267,85.598 185.381,78.331 165.476 C 71.064 145.571,64.877 128.596,64.582 127.754 L 64.045 126.222 60.511 128.140" fill="#2563EB" /><path d="M274.762 128.622 C 271.211 130.553,264.247 135.328,263.275 136.499 C 262.888 136.965,264.083 138.377,268.309 142.438 C 290.896 164.153,303.781 199.212,296.919 220.285 C 296.525 221.494,299.233 221.905,307.606 221.905 C 342.410 221.905,376.199 203.771,375.883 185.262 C 375.593 168.257,366.540 149.134,353.295 137.548 C 347.633 132.596,337.258 125.917,336.463 126.712 C 336.313 126.861,329.923 144.167,322.262 165.170 C 314.601 186.172,308.143 203.405,307.911 203.464 C 307.679 203.523,302.054 188.786,295.411 170.714 C 279.203 126.619,279.349 127.004,278.808 126.832 C 278.547 126.749,276.726 127.555,274.762 128.622" fill="#2563EB" /><path d="M155.952 130.866 C 128.100 145.658,109.850 173.424,106.659 205.861 C 104.251 230.331,138.046 253.305,185.000 259.117 C 234.477 265.242,294.198 238.181,293.923 209.762 C 293.695 186.219,281.095 159.782,262.254 143.315 C 255.037 137.007,240.558 127.807,239.521 128.870 C 239.298 129.099,236.135 137.429,232.492 147.381 C 228.849 157.333,220.115 181.182,213.084 200.379 C 205.919 219.942,200.155 235.011,199.969 234.665 C 199.786 234.325,190.896 210.315,180.213 181.310 C 169.530 152.304,160.666 128.576,160.514 128.581 C 160.362 128.586,158.310 129.614,155.952 130.866" fill="#2563EB" /><path d="M90.247 140.597 L 88.024 142.619 85.674 152.381 C 84.382 157.750,83.288 162.571,83.243 163.095 C 83.133 164.381,92.443 188.234,92.869 187.758 C 93.054 187.550,95.288 182.050,97.833 175.535 L 102.460 163.690 99.974 153.154 L 97.488 142.619 95.575 140.952 C 92.636 138.391,92.669 138.393,90.247 140.597" fill="#2563EB" /><path d="M305.620 140.336 C 304.493 141.330,303.455 142.298,303.313 142.487 C 303.171 142.677,301.916 147.498,300.524 153.202 L 297.994 163.571 302.371 174.762 C 304.779 180.917,306.960 186.488,307.217 187.143 C 307.828 188.694,307.583 189.199,313.002 175.218 L 317.531 163.531 315.129 153.313 C 312.666 142.834,312.447 142.320,309.429 139.927 L 307.668 138.530 305.620 140.336" fill="#2563EB" /><path d="M196.577 148.218 L 193.392 151.190 189.989 165.418 C 188.118 173.242,186.690 179.992,186.815 180.418 C 187.366 182.284,199.623 213.132,199.945 213.461 C 200.355 213.880,213.551 180.674,213.459 179.454 C 213.400 178.669,208.055 155.773,207.118 152.289 C 206.706 150.759,201.127 145.224,200.016 145.242 C 199.876 145.245,198.329 146.584,196.577 148.218" fill="#2563EB" /></svg>